Coordinates
version=1
nRows=21
nColumns=12
inDegrees=yes

Units are S.I. units (second, meters, Newtons, ...)
Angles are in degrees

endheader
time	SC_y	SC_z	SC_x	AC_y	AC_z	AC_x	GH_y	GH_z	GH_yy	EL_x	PS_y
       0.0              -30.99          14.55          72.54          46.04        -0.9695         -18.63          136.6          1.488          86.29          26.76          155.3
   0.01641              -30.99          14.55          72.53          46.04         -0.968         -18.63          136.6          1.498          86.26          26.77          155.3
   0.03281              -30.99          14.55          72.52          46.04        -0.9664         -18.63          136.6          1.508          86.23          26.79          155.3
   0.04922              -30.99          14.55          72.52          46.04        -0.9647         -18.62          136.6           1.52          86.19           26.8          155.3
   0.06562              -30.99          14.55          72.51          46.04        -0.9628         -18.62          136.5          1.531          86.15          26.82          155.3
   0.08203              -30.99          14.55           72.5          46.05        -0.9609         -18.62          136.5          1.544          86.11          26.83          155.3
   0.09843              -30.98          14.55          72.49          46.05        -0.9588         -18.61          136.5          1.557          86.07          26.85          155.3
    0.1148              -30.98          14.55          72.48          46.05        -0.9566         -18.61          136.4          1.572          86.02          26.87          155.3
    0.1312              -30.98          14.55          72.47          46.06        -0.9543          -18.6          136.4          1.587          85.97          26.89          155.3
    0.1477              -30.98          14.55          72.46          46.06        -0.9517          -18.6          136.4          1.604          85.92          26.91          155.3
    0.1641              -30.97          14.55          72.45          46.06         -0.949         -18.59          136.3          1.621          85.86          26.94          155.2
    0.1805              -30.97          14.55          72.43          46.07        -0.9461         -18.59          136.3          1.641           85.8          26.96          155.2
    0.1969              -30.97          14.55          72.42          46.07        -0.9429         -18.58          136.2          1.661          85.73          26.99          155.2
    0.2133              -30.97          14.55           72.4          46.07        -0.9395         -18.58          136.2          1.683          85.66          27.02          155.2
    0.2297              -30.96          14.55          72.39          46.08        -0.9358         -18.57          136.1          1.707          85.58          27.06          155.2
    0.2461              -30.96          14.55          72.37          46.08        -0.9318         -18.56          136.0          1.734           85.5          27.09          155.2
    0.2625              -30.95          14.55          72.35          46.09        -0.9274         -18.56          136.0          1.762          85.41          27.13          155.2
    0.2789              -30.95          14.55          72.33          46.09        -0.9227         -18.55          135.9          1.793          85.31          27.17          155.2
    0.2953              -30.94          14.55          72.31           46.1        -0.9175         -18.54          135.8          1.827           85.2          27.22          155.2
    0.3117              -30.94          14.55          72.28          46.11        -0.9118         -18.53          135.7          1.864          85.08          27.27          155.2
    0.3281              -30.93          14.55          72.25          46.12        -0.9056         -18.52          135.6          1.904          84.95          27.32          155.2
